<svg xmlns="http://www.w3.org/2000/svg" viewBox="0 0 208.85 208.85"><defs><style>.cls-1{fill:#f6f6f6;}.cls-2{fill:#c6bbdd;}</style></defs><g id="Layer_2" data-name="Layer 2"><g id="Layer_1-2" data-name="Layer 1"><rect class="cls-1" width="208.85" height="208.85"/><path class="cls-2" d="M63.33,76.35c-.25-6.76-2-15.56,3-21.12l-1.1.65a6,6,0,0,1,2.57-.42l.5,0c-.51-.05.26,0,.31.06l.7.19c.09,0,.72.29.3.1A9.62,9.62,0,0,1,73.28,59C75.8,62.29,77.2,66.12,78.44,70c.72,2.28,1.22,4.54,2.56,6.57,1.65,2.49,4,4.92,7,5.73,2.63.73,5.84.15,8.49-.28a36.13,36.13,0,0,0,8.08-2.28,34,34,0,0,0,8-4.64,8.13,8.13,0,0,0,3-3.38,13.53,13.53,0,0,0,.7-5.4,21.65,21.65,0,0,0-1.29-4.71c-.53-1.66-1.09-3.32-1.61-5a32.65,32.65,0,0,1-1.88-8.39,52.71,52.71,0,0,1-.11-5.62c0,.06.08-.77,0-.42s.08-.44.07-.4a9,9,0,0,1,.31-1.13c-.2.54.62-.88.22-.42a1.65,1.65,0,0,1,.29-.3c.22-.19.22-.19,0,0a3.11,3.11,0,0,1,.4-.22c-.57.15.87-.15.46-.11a7,7,0,0,1,1.71,0,8.69,8.69,0,0,1,3.06,1,20.78,20.78,0,0,1,5.69,5.17,184.26,184.26,0,0,1,12.29,17.44,177,177,0,0,1,11,19.2,2.52,2.52,0,0,0,3.42.89,2.55,2.55,0,0,0,.9-3.42,182,182,0,0,0-11.61-20.13c-4.12-6.26-8.26-12.74-13.2-18.39a20.83,20.83,0,0,0-7.51-5.79c-2.73-1.14-6.37-1.66-9-.07-4.36,2.61-3.53,8.51-3.39,12.79.11,3.71,1.32,7.4,2.46,10.9.59,1.82,1.2,3.63,1.75,5.46.45,1.49,1,3.75.19,5.25a6.66,6.66,0,0,1-1.61,1.41c-.65.51-1.35,1-2,1.42a29.13,29.13,0,0,1-4.36,2.28,33,33,0,0,1-9.33,2.34c-1.34.13-3.11.45-4.38,0a7.49,7.49,0,0,1-3.21-2.58c-1.67-2.09-2.09-4.52-2.9-7-1.6-4.86-3.62-10-7.27-13.71a12,12,0,0,0-6-3.5,11.47,11.47,0,0,0-4.13,0,8.67,8.67,0,0,0-1.67.41,5.56,5.56,0,0,0-2.43,2.28c-3.83,5.25-3.71,12.24-3.36,18.44.08,1.52.18,3,.24,4.57.11,3.21,5.11,3.22,5,0Z"/><path class="cls-2" d="M58.88,95c.28,11.11,1.69,22.75,7.51,32.46A36.17,36.17,0,0,0,90.8,144.05a65.64,65.64,0,0,0,29.33-1.37c9.59-2.63,18.87-7.63,25.53-15.14a46.06,46.06,0,0,0,11-33.49,2.56,2.56,0,0,0-2.5-2.5,2.53,2.53,0,0,0-2.5,2.5A42,42,0,0,1,144,121.74c-5.31,7.26-13.48,12.29-21.91,15.12a63.26,63.26,0,0,1-26.94,2.82c-8.67-1-17.13-4.87-22.5-11.89-7-9.2-8.45-21.56-8.73-32.78-.09-3.21-5.09-3.22-5,0Z"/><path class="cls-2" d="M82.82,105.55l.11,0-.59.26a7.08,7.08,0,0,1,1.63-.47l.59-.25a1.85,1.85,0,0,0,.71-.65,1.27,1.27,0,0,0,.32-.55,1.88,1.88,0,0,0,.21-1l.06-1.73-.09-.66a1.78,1.78,0,0,0-.44-.85,1.21,1.21,0,0,0-.45-.45,1.94,1.94,0,0,0-.85-.45l-.67-.09-.66.09a2.87,2.87,0,0,0-1.5,1.15,3.16,3.16,0,0,0-.44,1.56,4.26,4.26,0,0,0,.1.82.85.85,0,0,0,0,.17,3.32,3.32,0,0,0,.81,1.36,3,3,0,0,0,1.36.79,1.89,1.89,0,0,0,1,0,1.78,1.78,0,0,0,.92-.29l.51-.39a2.48,2.48,0,0,0,.64-1.11,2.82,2.82,0,0,0-.25-2.2,3.08,3.08,0,0,0-1.08-1.1,3.31,3.31,0,0,0-1.54-.44,2.14,2.14,0,0,0-1,.13,2.91,2.91,0,0,0-1.22.72,2.78,2.78,0,0,0-.5.63,3.5,3.5,0,0,0-.36.79.79.79,0,0,0-.06.22,5.38,5.38,0,0,0-.12,1.14,11.33,11.33,0,0,0,.15,1.17l.25.6a1.83,1.83,0,0,0,.65.7,1.1,1.1,0,0,0,.55.32,1.88,1.88,0,0,0,1,.22,1,1,0,0,0,.25,0,3.5,3.5,0,0,0,.87-.14,3.72,3.72,0,0,0,1.44-.86,4.36,4.36,0,0,0,.54-.68l0-.09a4.78,4.78,0,0,0,.26-.62A2.5,2.5,0,0,0,86,102a3.92,3.92,0,0,0-.3-.79,1.62,1.62,0,0,0-.1-.18,3.86,3.86,0,0,0-1.15-1.16,1.4,1.4,0,0,0-.17-.09,4.31,4.31,0,0,0-.77-.32,3.33,3.33,0,0,0-2.63.36,2.38,2.38,0,0,0-1.19,2.49,1.85,1.85,0,0,0,.29.93l.39.5a2.55,2.55,0,0,0,1.11.65l.66.08a2.43,2.43,0,0,0,1.26-.34l.15-.07-.6.25a.65.65,0,0,1,.2,0l-.67.08h.24l-.67-.08a1.1,1.1,0,0,1,.26.06l-.6-.25a1.35,1.35,0,0,1,.26.15l-.51-.39a1.37,1.37,0,0,1,.17.17l-.39-.5a1.09,1.09,0,0,1,.14.23l-.25-.59a1.05,1.05,0,0,1,0,.19l.25-1.93-.1.17.39-.51a1,1,0,0,1-.2.2l.51-.39-.22.13.6-.26a.73.73,0,0,1-.24.07l.67-.09a1,1,0,0,1-.25,0L85,102.58a.68.68,0,0,0,0-.14l.09.67a3,3,0,0,1,0-.79L85,103a1.77,1.77,0,0,1,.08-.31l-.25.6a2,2,0,0,1,.11-.2l-.39.51.11-.11-.51.39.1-.06-.59.25.15,0-.67.09h.16l-.66-.09.18,0-.6-.25a.35.35,0,0,1,.13.08l-.5-.39.09.08-.39-.5a.26.26,0,0,1,0,.09l-.25-.6a.3.3,0,0,1,0,.1l-.08-.67a.28.28,0,0,1,0,.09l.09-.67a.24.24,0,0,1,0,.09l3.08-1.74-.1,0,.6.25-.11-.06.51.39a1.14,1.14,0,0,1-.11-.11l.39.5a.51.51,0,0,1-.09-.16l.25.6a.73.73,0,0,1-.06-.21l.09.67a.74.74,0,0,1,0-.21l-.09.66a.83.83,0,0,1,0-.15l-.25.6,0-.1-4.66-1.26-.06,1.73,1.84-2.41a9.18,9.18,0,0,0-2.34.77,2.67,2.67,0,0,0-1.15,1.49,1.89,1.89,0,0,0-.05,1,2,2,0,0,0,.3.93l.39.5a2.52,2.52,0,0,0,1.1.65l.67.09a2.54,2.54,0,0,0,1.26-.35Z"/><path class="cls-2" d="M122.14,86.55a4.1,4.1,0,0,0-.71.53,1.14,1.14,0,0,0-.19.19,4.68,4.68,0,0,0-.53.71,5.23,5.23,0,0,0-.37.84,4,4,0,0,0-.2,1.18,1.41,1.41,0,0,0,0,.29c0,.25.06.51.11.76a1.81,1.81,0,0,0,.26.63l.39.51a1.85,1.85,0,0,0,.8.52,2.46,2.46,0,0,0,.5.17,6,6,0,0,0,.74.1h.12c.24,0,.5-.06.74-.1l.1,0,.09,0a5.93,5.93,0,0,0,.69-.29,3.47,3.47,0,0,0,.85-.61,4.78,4.78,0,0,0,.67-.83,4.64,4.64,0,0,0,.45-1,4.09,4.09,0,0,0,.19-1.09,1.62,1.62,0,0,0,0-.22,5.32,5.32,0,0,0-.12-.88,5,5,0,0,0-.32-.77.72.72,0,0,0-.12-.21,3.74,3.74,0,0,0-1.16-1.15,1,1,0,0,0-.17-.1,4.54,4.54,0,0,0-.77-.3,3.36,3.36,0,0,0-1-.12,7.53,7.53,0,0,0-.83.11l-.21.06a3.68,3.68,0,0,0-1,.45,6.67,6.67,0,0,0-.67.52,1.29,1.29,0,0,0-.16.17,5.62,5.62,0,0,0-.51.69,5.41,5.41,0,0,0-.34.78c0,.08,0,.16,0,.23a5.51,5.51,0,0,0-.1.9,1.9,1.9,0,0,0,.22,1,1.82,1.82,0,0,0,.52.8l.5.39a2.43,2.43,0,0,0,1.26.34c.24,0,.5-.05.73-.09l.09,0c.12,0,.25-.11.36-.15l.36-.15a2.76,2.76,0,0,0,.76-.6c.15-.17.29-.36.43-.54a.56.56,0,0,1,0-.08,3,3,0,0,0,.2-.45,3.66,3.66,0,0,0,.18-.46,4.59,4.59,0,0,0,.1-.83,2,2,0,0,0-.21-1,2,2,0,0,0-.52-.81,2.83,2.83,0,0,0-1.77-.73l-.66.09a2.53,2.53,0,0,0-1.11.64l-.39.51a2.53,2.53,0,0,0-.34,1.26v.1l.09-.66a1.8,1.8,0,0,1-.06.22l.25-.6a1.26,1.26,0,0,1-.13.23l.39-.5a1.21,1.21,0,0,1-.16.16l.51-.39-.2.11.6-.26a.61.61,0,0,1-.18,0l.67-.09h0l2.5,2.5a1.77,1.77,0,0,1,0-.23l-.09.66a1.81,1.81,0,0,1,.09-.31l-.26.6a1.75,1.75,0,0,1,.18-.29l-.39.5a1.24,1.24,0,0,1,.26-.25l-.51.39a1.62,1.62,0,0,1,.36-.21l-.59.25a1.56,1.56,0,0,1,.37-.1l-.67.09a1.09,1.09,0,0,1,.36,0l-.67-.09a1,1,0,0,1,.29.07l-.6-.25a1,1,0,0,1,.23.13l-.51-.39a.86.86,0,0,1,.19.19l-.39-.51a1.1,1.1,0,0,1,.15.26l-.25-.6a1.11,1.11,0,0,1,.08.3l-.09-.66a1.15,1.15,0,0,1,0,.37l.09-.66a1.66,1.66,0,0,1-.12.42l.25-.6a2,2,0,0,1-.23.4l.39-.5a1.7,1.7,0,0,1-.3.3l.51-.39a1.38,1.38,0,0,1-.29.17l.6-.26a.9.9,0,0,1-.28.08l.66-.09a1,1,0,0,1-.24,0l.66.09-.2,0,1.75,1.75,0-.14.09.67a1.62,1.62,0,0,1,0-.44l-.09.67a1.86,1.86,0,0,1,.12-.42l-.25.6a1.88,1.88,0,0,1,.21-.37l-.39.5a3,3,0,0,1,.25-.25l-.5.39.16-.1a2.87,2.87,0,0,0,1.15-1.5,2.88,2.88,0,0,0-.25-1.92l-.4-.51a2.45,2.45,0,0,0-1.1-.64l-.66-.09a2.53,2.53,0,0,0-1.26.34Z"/><path class="cls-2" d="M89.46,116.9c-1.27,3,0,6.74,2.41,8.83,2.94,2.56,7,2.41,10.34.81,6.53-3.12,10.12-10.85,10-17.82L108,110.49c3.53,4.39,8.06,8.56,14,8.79a10.56,10.56,0,0,0,10.9-9.6,2.52,2.52,0,0,0-2.5-2.5,2.55,2.55,0,0,0-2.5,2.5c-.33,3.34-3.88,5.07-6.9,4.49-4.06-.79-7-4.15-9.46-7.22-1.4-1.73-4.3-.25-4.27,1.77.07,4.68-1.88,9.7-5.79,12.48-1.56,1.12-4,2.18-5.75,1.16a3.26,3.26,0,0,1-1.4-4.13,2.5,2.5,0,0,0-1.74-3.07,2.56,2.56,0,0,0-3.08,1.74Z"/><path class="cls-2" d="M105,105.43l4.22-1.54c.61-.22,1.2-.48,1.78-.74l.71-.33.14-.06q.38-.17-.15.06c.07,0,.37-.15.44-.17a6.67,6.67,0,0,1,.72-.23c.08,0,.55-.09.07,0s0,0,0,0c.44,0-.53-.15-.28,0a.88.88,0,0,0,.23.07c-.44-.06-.58-.27-.32-.11s-.55-.51-.22-.14c-.48-.53-.35-.48-.24-.31s-.07.2-.1-.28a1.66,1.66,0,0,0,.12.45c-.25-.55-.05-.6-.06-.36s0,.21,0,.31a2.65,2.65,0,0,1,0,.66s.11-.71,0-.33c0,.12,0,.23-.07.35s-.09.38-.14.57a5.22,5.22,0,0,1-.18.56,1.43,1.43,0,0,1-.08.22c-.2.54.14-.29.06-.13a8.86,8.86,0,0,1-.44.87c-.07.12-.16.23-.23.35.41-.7.31-.39.12-.18l-.27.27c-.2.18-.44.22.11-.07a1.43,1.43,0,0,0-.2.14q-.27.17-.54.3c-.42.22.6-.2.14-.06l-.23.08c-.24.07-.49.1-.73.16.65-.18.47,0,.23,0l-.31,0c-.22,0-.43,0-.64,0l-.33,0c-.33,0,.69.12.22,0l-.78-.16c-.25-.07-.51-.16-.75-.25l-.25-.1c.71.22.24.11,0,0-.46-.23-.85-.56-1.3-.79.56.29.28.22.09.06l-.29-.25a6.92,6.92,0,0,1-.53-.56c-.06-.06-.11-.14-.17-.2.53.55.15.19,0,0a5.13,5.13,0,0,1-.36-.65,2.5,2.5,0,0,0-3.42-.89,2.57,2.57,0,0,0-.9,3.42,10.13,10.13,0,0,0,6,4.86,8.59,8.59,0,0,0,7.43-.71,8.83,8.83,0,0,0,3.49-5.75,6.83,6.83,0,0,0-.09-3.59,4.1,4.1,0,0,0-3.74-2.77c-1.68-.08-3.28.81-4.76,1.48l-.38.17c.74-.38.12-.06-.07,0l-1.41.51-2.81,1a2.5,2.5,0,1,0,1.33,4.82Z"/></g></g></svg>