<svg xmlns="http://www.w3.org/2000/svg" viewBox="0 0 133.76 37.55"><defs><style>.cls-1{fill:#bd9cc9;stroke:#fff;stroke-miterlimit:10;stroke-width:0.5px;}.cls-2{fill:#674e9b;}</style></defs><g id="Layer_2" data-name="Layer 2"><g id="Layer_1-2" data-name="Layer 1"><g id="Layer_2-2" data-name="Layer 2"><g id="Layer_1-2-2" data-name="Layer 1-2"><path class="cls-1" d="M129.56,14.81a2.23,2.23,0,0,1-2.31,1.47,4.84,4.84,0,0,1-3.09-1.2,3.68,3.68,0,0,0-2-.84,5.09,5.09,0,0,1-3-1.32,2.7,2.7,0,0,1-1-2.21,2.23,2.23,0,0,1,1.18-1.81,5.56,5.56,0,0,1,1.12-.48,6.93,6.93,0,0,0,2.25-1.06A3.12,3.12,0,0,1,126,7.1a3.43,3.43,0,0,1,2,2.65,4.69,4.69,0,0,0,.83,2.05,3.63,3.63,0,0,1,.81,2.47A3.38,3.38,0,0,1,129.56,14.81Z" transform="translate(-0.36)"/><path class="cls-1" d="M125.93,3.65a3,3,0,0,1-1,1.6,2.51,2.51,0,0,1-.64.36,1.92,1.92,0,0,1-2.47-1.14,2.65,2.65,0,0,1,.34-2.82A3.88,3.88,0,0,1,124.69.27a1.82,1.82,0,0,1,.57,0,1,1,0,0,1,1,.84,3,3,0,0,1,0,1.47C126.12,2.94,126,3.29,125.93,3.65Z" transform="translate(-0.36)"/><path class="cls-1" d="M127.46,3a6.78,6.78,0,0,1,.94-1.66,1.9,1.9,0,0,1,.38-.37,1,1,0,0,1,1.37.1,3.41,3.41,0,0,1,.8,1,4.05,4.05,0,0,1,.52,2.62,2.43,2.43,0,0,1-1.55,1.91,1.92,1.92,0,0,1-2.51-1.08,2.88,2.88,0,0,1-.18-1.81C127.3,3.46,127.38,3.21,127.46,3Z" transform="translate(-0.36)"/><path class="cls-1" d="M116.41,4.2a3.22,3.22,0,0,1,1.25-1.64,1.46,1.46,0,0,1,.38-.18,1,1,0,0,1,1.14.33,2.43,2.43,0,0,1,.37.57,5.56,5.56,0,0,1,.52,2.48,2.08,2.08,0,0,1-.68,1.52,1.59,1.59,0,0,1-2.21-.12,2.75,2.75,0,0,1-.88-2.47A2.68,2.68,0,0,1,116.41,4.2Z" transform="translate(-0.36)"/><path class="cls-1" d="M133.52,9.84a2.4,2.4,0,0,1-2.14,1.66,1.77,1.77,0,0,1-2-2.13,2.38,2.38,0,0,1,.68-1.29,5.21,5.21,0,0,1,1.7-1.18,2,2,0,0,1,.6-.15,1,1,0,0,1,1.08.58,2.5,2.5,0,0,1,.29,1.17A3.37,3.37,0,0,1,133.52,9.84Z" transform="translate(-0.36)"/><path class="cls-2" d="M2.73,26V18.54a5.57,5.57,0,0,0-.18-1.83,1.54,1.54,0,0,0-1-.63C.75,15.84.36,15.41.36,14.81a1.08,1.08,0,0,1,.5-1,2.55,2.55,0,0,1,1.45-.34l1.57,0h.79l2.57,0,2.69-.25a12,12,0,0,1,1.4-.09,7.74,7.74,0,0,1,3.85.95,5.53,5.53,0,0,1,2.95,5.2,5.76,5.76,0,0,1-2.06,4.62,7.1,7.1,0,0,1-4.7,1.62,17,17,0,0,1-1.72-.1l-.67,0c-.26,0-.39.15-.39.47V26l.1,2.32a2,2,0,0,0,.23,1,2.13,2.13,0,0,0,.84.68c.57.33.85.69.85,1.08,0,.59-.42,1.05-1.26,1.37a10.89,10.89,0,0,1-3.59.47C2.5,32.9.87,32.31.87,31.11a.92.92,0,0,1,.21-.65,4.42,4.42,0,0,1,1-.65,1.05,1.05,0,0,0,.56-.75C2.68,28.74,2.71,27.71,2.73,26Zm6-9.22v4.8c0,.37.07.59.22.66a2,2,0,0,0,1,.2,2.12,2.12,0,0,0,1.46-.52,3.21,3.21,0,0,0,.86-2.52,3.25,3.25,0,0,0-1-2.65,2.35,2.35,0,0,0-1.54-.52C9,16.2,8.69,16.38,8.69,16.75Z" transform="translate(-0.36)"/><path class="cls-2" d="M30.51,26.29h-6.2c-.28,0-.41.13-.41.39a2.33,2.33,0,0,0,.93,1.73,3,3,0,0,0,2,.81,4.5,4.5,0,0,0,1.4-.26,4.78,4.78,0,0,0,1.28-.64,1.31,1.31,0,0,1,.71-.34.88.88,0,0,1,.67.45,1.55,1.55,0,0,1,.33.93,2.57,2.57,0,0,1-1.19,2A7.5,7.5,0,0,1,25.19,33a6.61,6.61,0,0,1-4.65-1.72A6.79,6.79,0,0,1,19,29.23a7.53,7.53,0,0,1-.78-3.36,7.2,7.2,0,0,1,7.22-7.32,6.26,6.26,0,0,1,4.26,1.53,6,6,0,0,1,1.43,1.81,5,5,0,0,1,.62,2.31,2.84,2.84,0,0,1-.36,1.51A1,1,0,0,1,30.51,26.29Zm-5.86-2.64H26a.74.74,0,0,0,.85-.83,1.85,1.85,0,0,0-.41-1.24,1.34,1.34,0,0,0-1.07-.48,1.31,1.31,0,0,0-1.16.62,2,2,0,0,0-.4,1.17.75.75,0,0,0,.19.59A1,1,0,0,0,24.65,23.65Z" transform="translate(-0.36)"/><path class="cls-2" d="M40.32,22.26V27a2.28,2.28,0,0,0,.39,1.38,1.18,1.18,0,0,0,1,.54,2.85,2.85,0,0,0,1.36-.51.8.8,0,0,1,.4-.12.71.71,0,0,1,.58.4,1.6,1.6,0,0,1,.27.89,2.26,2.26,0,0,1-.9,1.68A6.51,6.51,0,0,1,38.87,33a4.38,4.38,0,0,1-4.68-4.64V21.83c0-.22,0-.35-.07-.4a.58.58,0,0,0-.38-.08H32.38c-.25,0-.41,0-.48-.13a1.17,1.17,0,0,1-.11-.63V20a.72.72,0,0,1,.3-.62l6-4.07a1.07,1.07,0,0,1,.55-.13h1.07a.52.52,0,0,1,.45.16,1.34,1.34,0,0,1,.11.65v1.9a.83.83,0,0,0,.12.55.79.79,0,0,0,.54.13h2.44c.33,0,.54.06.64.19a1.59,1.59,0,0,1,.14.81v.84a1.78,1.78,0,0,1-.18.94.8.8,0,0,1-.68.26H41a.67.67,0,0,0-.5.14A.79.79,0,0,0,40.32,22.26Z" transform="translate(-0.36)"/><path class="cls-2" d="M52.17,32.61H50.4c-1.24,0-2.14.05-2.71.09s-.88.07-1.1.07a1.82,1.82,0,0,1-1.28-.44,1.38,1.38,0,0,1-.46-1.05,1,1,0,0,1,.17-.62,4.47,4.47,0,0,1,.83-.7,1.47,1.47,0,0,0,.53-.89,22.51,22.51,0,0,0,.32-2.57c.16-2.06.25-4.58.25-7.59a7.26,7.26,0,0,0-.21-2.19,1.68,1.68,0,0,0-1-.9,1.22,1.22,0,0,1-.34-2.18,2.14,2.14,0,0,1,1.33-.39c.3,0,.69,0,1.15,0,.78,0,1.61.06,2.51.06q1,0,3.9-.09l1.65,0a10.81,10.81,0,0,1,2.83.31,4.62,4.62,0,0,1,1.87,1A4,4,0,0,1,62,17.71a5,5,0,0,1-.38,1.9,3.84,3.84,0,0,1-1,1.47,1.07,1.07,0,0,0-.46.72c0,.24.18.44.55.6a5.2,5.2,0,0,1,2,1.56,4.52,4.52,0,0,1,.91,2.87,5.68,5.68,0,0,1-1.39,3.72,6.62,6.62,0,0,1-5.42,2.21c-.33,0-1.13,0-2.41-.07Zm.92-15.33v2.91a2.12,2.12,0,0,0,.16,1,.6.6,0,0,0,.57.28,1.63,1.63,0,0,0,1.44-.64,3.48,3.48,0,0,0,.47-2,3.7,3.7,0,0,0-.48-2.05A1.52,1.52,0,0,0,53.9,16a.7.7,0,0,0-.64.28A1.94,1.94,0,0,0,53.09,17.28Zm0,8.14v1.34a7.66,7.66,0,0,0,.25,2.46,1,1,0,0,0,1,.61q2,0,2-2.52c0-2.09-.75-3.13-2.25-3.13a1,1,0,0,0-.8.27A1.53,1.53,0,0,0,53.09,25.42Z" transform="translate(-0.36)"/><path class="cls-2" d="M71.62,19.36V27c0,1.63.51,2.45,1.52,2.45a1.48,1.48,0,0,0,1.27-.8,9.71,9.71,0,0,0,.29-3,21.77,21.77,0,0,0-.15-3.17,1.07,1.07,0,0,0-.18-.51,1.84,1.84,0,0,0-.51-.38,1.23,1.23,0,0,1-.75-1.07c0-.59.43-1,1.3-1.22a19,19,0,0,1,4.84-.65c.89,0,1.33.51,1.33,1.51,0,.11,0,.32,0,.64s0,1,0,1.65v6.23c0,.32.26.61.77.88a1.05,1.05,0,0,1,.64,1c0,.84-.93,1.5-2.81,2a13.36,13.36,0,0,1-3.19.41,1.64,1.64,0,0,1-.87-.16.77.77,0,0,1-.27-.6c0-.59-.21-.88-.5-.88a.57.57,0,0,0-.29.08q-.14.08-.81.57a4.72,4.72,0,0,1-2.86,1,4,4,0,0,1-3.58-1.56,8.25,8.25,0,0,1-.88-4.42c0-.78,0-1.43,0-2v-.65a6,6,0,0,0-.2-1.79,1.68,1.68,0,0,0-.75-.89,2.31,2.31,0,0,1-.65-.46.65.65,0,0,1-.14-.46c0-.72.5-1.19,1.52-1.43a22.81,22.81,0,0,1,5.17-.61C71.36,18.65,71.62,18.89,71.62,19.36Z" transform="translate(-0.36)"/><path class="cls-2" d="M98.14,14.47v12.9a6.64,6.64,0,0,0,.09,1.41,1.19,1.19,0,0,0,.48.61,2.36,2.36,0,0,1,.64.62,1.21,1.21,0,0,1,.17.65c0,.75-.71,1.33-2.13,1.72a14.42,14.42,0,0,1-3.83.52.8.8,0,0,1-.55-.13,1.16,1.16,0,0,1-.16-.64c0-.48-.2-.72-.48-.72a1.39,1.39,0,0,0-.7.42,4.43,4.43,0,0,1-3,1.17A5.12,5.12,0,0,1,85,31.38a7.85,7.85,0,0,1-1.55-2.25,7.62,7.62,0,0,1-.8-3.34,7.84,7.84,0,0,1,1-3.84,6.69,6.69,0,0,1,2.59-2.63A5.56,5.56,0,0,1,89,18.55a5.18,5.18,0,0,1,2.74.74.8.8,0,0,0,.32.11c.28,0,.42-.4.42-1.21a1.23,1.23,0,0,0-.23-.8,1.82,1.82,0,0,0-.82-.47q-.84-.29-.84-1c0-.69.64-1.23,1.92-1.61a20.28,20.28,0,0,1,4.53-1A1,1,0,0,1,98.14,14.47ZM91,21.58a1.52,1.52,0,0,0-1.36,1A7.46,7.46,0,0,0,88.94,26a5.3,5.3,0,0,0,.65,2.9,1.42,1.42,0,0,0,1.25.7c.57,0,1-.35,1.25-1.06a11,11,0,0,0,.39-3.44,6.16,6.16,0,0,0-.46-2.9A1.23,1.23,0,0,0,91,21.58Z" transform="translate(-0.36)"/><path class="cls-2" d="M115.73,14.47v12.9a7.76,7.76,0,0,0,.08,1.41,1.25,1.25,0,0,0,.48.61,2.6,2.6,0,0,1,.65.62,1.21,1.21,0,0,1,.16.65c0,.75-.71,1.33-2.13,1.72a14.35,14.35,0,0,1-3.82.52c-.29,0-.47,0-.55-.13a1.14,1.14,0,0,1-.17-.64c0-.48-.2-.72-.47-.72a1.35,1.35,0,0,0-.7.42,4.47,4.47,0,0,1-3,1.17,5.11,5.11,0,0,1-3.68-1.62A8.09,8.09,0,0,1,101,29.13a7.61,7.61,0,0,1-.79-3.34,7.74,7.74,0,0,1,1-3.84,6.56,6.56,0,0,1,2.59-2.63,5.5,5.5,0,0,1,2.7-.77,5.22,5.22,0,0,1,2.75.74.77.77,0,0,0,.31.11c.29,0,.43-.4.43-1.21a1.23,1.23,0,0,0-.23-.8,1.87,1.87,0,0,0-.83-.47,1,1,0,0,1-.83-1c0-.69.64-1.23,1.91-1.61a20.51,20.51,0,0,1,4.53-1A1,1,0,0,1,115.73,14.47Zm-7.17,7.11a1.51,1.51,0,0,0-1.36,1,7.45,7.45,0,0,0-.68,3.42,5.3,5.3,0,0,0,.65,2.9,1.43,1.43,0,0,0,1.26.7c.57,0,1-.35,1.24-1.06a11,11,0,0,0,.39-3.44,6,6,0,0,0-.46-2.9A1.21,1.21,0,0,0,108.56,21.58Z" transform="translate(-0.36)"/><path class="cls-2" d="M130.46,25.5l-1.74,5.13a21.37,21.37,0,0,1-1.3,3.12,9,9,0,0,1-1.49,2,5.56,5.56,0,0,1-4.13,1.75,4.52,4.52,0,0,1-3.17-1.1,2.8,2.8,0,0,1-.94-2.16,2.64,2.64,0,0,1,.66-1.83,2.06,2.06,0,0,1,1.6-.74,1.9,1.9,0,0,1,1.53.68,1.7,1.7,0,0,1,.37.55,9,9,0,0,1,.28,1.06c.1.41.32.62.66.62a.85.85,0,0,0,.69-.38,1.61,1.61,0,0,0,.27-1,6.75,6.75,0,0,0-.68-2.22l-3.18-7.24a6.75,6.75,0,0,0-.76-1.42,4,4,0,0,0-1.11-.69,1,1,0,0,1-.45-.44,1.27,1.27,0,0,1-.19-.64c0-.84.78-1.41,2.33-1.71a19,19,0,0,1,3.56-.3,6.23,6.23,0,0,1,2.2.31,1.44,1.44,0,0,1,1.08,1.4,1.65,1.65,0,0,1-.3.83A1.57,1.57,0,0,0,126,22a1.82,1.82,0,0,0,.14.7,13.57,13.57,0,0,0,.59,1.25c.33.66.62,1,.88,1s.55-.28.84-.86a3.76,3.76,0,0,0,.44-1.68,1.66,1.66,0,0,0-.33-1.06,1.9,1.9,0,0,1-.5-1.08,1.31,1.31,0,0,1,.9-1.16,5.66,5.66,0,0,1,2.4-.43c1.86,0,2.8.48,2.8,1.44a1.21,1.21,0,0,1-.29.84,2.46,2.46,0,0,1-1,.6,2.1,2.1,0,0,0-1,.85A17.63,17.63,0,0,0,130.46,25.5Z" transform="translate(-0.36)"/></g></g></g></g></svg>