<svg xmlns="http://www.w3.org/2000/svg" viewBox="0 0 276.09 55.04"><defs><style>.cls-1{fill:#7b5ca4;}.cls-2{fill:#662483;}</style></defs><g id="Layer_2" data-name="Layer 2"><g id="Layer_1-2" data-name="Layer 1"><path class="cls-1" d="M16.61,36.87H8.67V49.52a6.07,6.07,0,0,1-1.23,4.12A3.94,3.94,0,0,1,4.35,55,4,4,0,0,1,1.2,53.66,6.1,6.1,0,0,1,0,49.58V15.12c0-2,.44-3.41,1.31-4.27A5.84,5.84,0,0,1,5.49,9.57H16.61a27.91,27.91,0,0,1,7.59.79,11.33,11.33,0,0,1,4.54,2.53,11.48,11.48,0,0,1,2.9,4.34,15.6,15.6,0,0,1,1,5.76c0,4.55-1.35,8-4,10.35S21.92,36.87,16.61,36.87Zm-2.1-20.5H8.67V30h5.84a16.64,16.64,0,0,0,5.12-.67,6,6,0,0,0,3.14-2.19,6.78,6.78,0,0,0,1.08-4,7,7,0,0,0-1.66-4.82Q20.32,16.37,14.51,16.37Z"/><path class="cls-1" d="M59.29,40.16H43.7a11.46,11.46,0,0,0,1.09,5,7.67,7.67,0,0,0,2.84,3.26,7.13,7.13,0,0,0,3.89,1.1,9,9,0,0,0,2.62-.35,8.3,8.3,0,0,0,2.29-1.1,16.38,16.38,0,0,0,2-1.6c.62-.57,1.43-1.34,2.42-2.32a2.59,2.59,0,0,1,1.76-.54,2.8,2.8,0,0,1,2,.7,2.56,2.56,0,0,1,.76,2,5.56,5.56,0,0,1-.85,2.64A10.37,10.37,0,0,1,62,51.83a14.49,14.49,0,0,1-4.29,2.3,17.78,17.78,0,0,1-5.94.91q-7.68,0-11.94-4.57T35.56,38.06a21.57,21.57,0,0,1,1-6.85,15.17,15.17,0,0,1,3.06-5.41,13.32,13.32,0,0,1,5-3.47,17.23,17.23,0,0,1,6.54-1.2,15,15,0,0,1,8,2.06,13.28,13.28,0,0,1,5,5.32,14.5,14.5,0,0,1,1.67,6.65c0,2.09-.58,3.45-1.73,4.07A10.3,10.3,0,0,1,59.29,40.16ZM43.7,35.43H58.15c-.19-2.84-.93-5-2.2-6.39a6.49,6.49,0,0,0-5-2.12A6.26,6.26,0,0,0,46,29.07,11,11,0,0,0,43.7,35.43Z"/><path class="cls-1" d="M73,21.92h.87v-5c0-1.34,0-2.39.11-3.16a4.55,4.55,0,0,1,.57-2,3.57,3.57,0,0,1,1.34-1.39,3.61,3.61,0,0,1,1.95-.53,3.86,3.86,0,0,1,2.75,1.18,3.57,3.57,0,0,1,1,1.94,18,18,0,0,1,.22,3.25v5.67h2.92a3.65,3.65,0,0,1,2.59.84,2.84,2.84,0,0,1,.89,2.15A2.44,2.44,0,0,1,87,27.26a7.92,7.92,0,0,1-3.64.67H81.85V43.24a27.77,27.77,0,0,0,.13,3A3.11,3.11,0,0,0,82.69,48a2.3,2.3,0,0,0,1.85.66,9.75,9.75,0,0,0,1.9-.26,9.6,9.6,0,0,1,1.87-.26A2.33,2.33,0,0,1,90,48.9a2.76,2.76,0,0,1,.78,2A3.36,3.36,0,0,1,88.71,54a13.68,13.68,0,0,1-6,1.06A10,10,0,0,1,77,53.73a6,6,0,0,1-2.53-3.63,25.59,25.59,0,0,1-.6-6.19v-16h-1a3.67,3.67,0,0,1-2.62-.85,2.83,2.83,0,0,1-.91-2.17,2.76,2.76,0,0,1,1-2.15A4,4,0,0,1,73,21.92Z"/><path class="cls-1" d="M119.86,16.55H102.78V28h14.28a4.15,4.15,0,0,1,3,.93,3.28,3.28,0,0,1,1,2.49,3.21,3.21,0,0,1-1,2.47,4.22,4.22,0,0,1-3,.91H102.78V49.52a6.13,6.13,0,0,1-1.21,4.17,4.26,4.26,0,0,1-6.24,0,6.1,6.1,0,0,1-1.22-4.15V15.12a7.86,7.86,0,0,1,.56-3.19,3.55,3.55,0,0,1,1.74-1.8,7.08,7.08,0,0,1,3-.56h20.43a4.32,4.32,0,0,1,3.08,1,3.33,3.33,0,0,1,1,2.52,3.36,3.36,0,0,1-1,2.54A4.32,4.32,0,0,1,119.86,16.55Z"/><path class="cls-1" d="M133.08,17.32a4.11,4.11,0,0,1-2.84-1.07,3.85,3.85,0,0,1-1.18-3,3.81,3.81,0,0,1,1.21-2.91,3.94,3.94,0,0,1,2.81-1.15,4.08,4.08,0,0,1,2.75,1,3.77,3.77,0,0,1,1.2,3,3.88,3.88,0,0,1-1.17,3A3.93,3.93,0,0,1,133.08,17.32Zm3.95,8.6V50a5.51,5.51,0,0,1-1.14,3.78A3.68,3.68,0,0,1,133,55a3.52,3.52,0,0,1-2.85-1.31A5.69,5.69,0,0,1,129.06,50V26.16a5.49,5.49,0,0,1,1.09-3.72A3.62,3.62,0,0,1,133,21.19a3.75,3.75,0,0,1,2.89,1.25A5,5,0,0,1,137,25.92Z"/><path class="cls-1" d="M152.5,25.8v1a14,14,0,0,1,4.6-4.25,11.72,11.72,0,0,1,5.73-1.36,11.15,11.15,0,0,1,5.64,1.43,8.94,8.94,0,0,1,3.7,4.06,9.71,9.71,0,0,1,1,3.29,34.8,34.8,0,0,1,.24,4.52V50a5.66,5.66,0,0,1-1.1,3.78A3.55,3.55,0,0,1,169.49,55a3.58,3.58,0,0,1-2.89-1.31A5.63,5.63,0,0,1,165.49,50V36.1a14.36,14.36,0,0,0-1.1-6.29c-.73-1.46-2.18-2.18-4.36-2.18A6.28,6.28,0,0,0,156.15,29a7.58,7.58,0,0,0-2.57,3.65,27,27,0,0,0-.59,6.95V50a5.58,5.58,0,0,1-1.12,3.8A3.71,3.71,0,0,1,149,55a3.54,3.54,0,0,1-2.84-1.31A5.63,5.63,0,0,1,145,50V25.92a5.44,5.44,0,0,1,1-3.56,3.36,3.36,0,0,1,2.71-1.17,3.55,3.55,0,0,1,1.9.52A3.65,3.65,0,0,1,152,23.26,5.75,5.75,0,0,1,152.5,25.8Z"/><path class="cls-1" d="M203.2,50.29v-.83A21.07,21.07,0,0,1,200,52.59a12,12,0,0,1-3.39,1.83,12.44,12.44,0,0,1-4,.62,11.35,11.35,0,0,1-5.3-1.26,12.52,12.52,0,0,1-4.22-3.62,16.54,16.54,0,0,1-2.7-5.52,24.63,24.63,0,0,1-.92-6.86q0-7.8,3.65-12.17a11.89,11.89,0,0,1,9.6-4.36,12.36,12.36,0,0,1,5.81,1.24,16.33,16.33,0,0,1,4.61,3.79V14a6.42,6.42,0,0,1,1-3.87A3.28,3.28,0,0,1,207,8.81a3.4,3.4,0,0,1,2.79,1.2,5.57,5.57,0,0,1,1,3.56V50.29a5.24,5.24,0,0,1-1.06,3.56,3.63,3.63,0,0,1-5.41,0A5.25,5.25,0,0,1,203.2,50.29ZM187.53,38.06a14.81,14.81,0,0,0,1,5.76,8,8,0,0,0,2.76,3.58,6.59,6.59,0,0,0,3.83,1.21A6.79,6.79,0,0,0,199,47.46a7.83,7.83,0,0,0,2.77-3.5,14.77,14.77,0,0,0,1-5.9,14.32,14.32,0,0,0-1-5.72,8.53,8.53,0,0,0-2.8-3.66,6.47,6.47,0,0,0-3.87-1.27,6.3,6.3,0,0,0-3.91,1.3,8.22,8.22,0,0,0-2.67,3.72A15.23,15.23,0,0,0,187.53,38.06Z"/><path class="cls-1" d="M241,40.16H225.39a11.46,11.46,0,0,0,1.09,5,7.67,7.67,0,0,0,2.84,3.26,7.13,7.13,0,0,0,3.89,1.1,9,9,0,0,0,2.62-.35,8.3,8.3,0,0,0,2.29-1.1,16.38,16.38,0,0,0,2-1.6c.62-.57,1.43-1.34,2.42-2.32a2.58,2.58,0,0,1,1.75-.54,2.81,2.81,0,0,1,2,.7,2.56,2.56,0,0,1,.76,2,5.56,5.56,0,0,1-.85,2.64,10.37,10.37,0,0,1-2.55,2.9,14.49,14.49,0,0,1-4.29,2.3,17.78,17.78,0,0,1-5.94.91q-7.68,0-11.94-4.57t-4.26-12.41a21.29,21.29,0,0,1,1.05-6.85,15.17,15.17,0,0,1,3.06-5.41,13.32,13.32,0,0,1,5-3.47,17.23,17.23,0,0,1,6.54-1.2,15,15,0,0,1,8,2.06,13.28,13.28,0,0,1,5,5.32,14.5,14.5,0,0,1,1.67,6.65c0,2.09-.58,3.45-1.73,4.07A10.32,10.32,0,0,1,241,40.16Zm-15.59-4.73h14.45c-.19-2.84-.93-5-2.2-6.39a6.49,6.49,0,0,0-5-2.12,6.26,6.26,0,0,0-4.89,2.15A11,11,0,0,0,225.39,35.43Z"/><path class="cls-1" d="M262.17,43V50a5.53,5.53,0,0,1-1.14,3.8A3.72,3.72,0,0,1,258.14,55a3.55,3.55,0,0,1-2.83-1.28A5.61,5.61,0,0,1,254.2,50V26.8c0-3.74,1.3-5.61,3.88-5.61a3.18,3.18,0,0,1,2.86,1.31,7.46,7.46,0,0,1,1,3.87,14.65,14.65,0,0,1,2.93-3.87,5.91,5.91,0,0,1,4-1.31,10,10,0,0,1,4.87,1.31A3.91,3.91,0,0,1,276.09,26a3.36,3.36,0,0,1-1,2.51,3,3,0,0,1-2.18,1,9.61,9.61,0,0,1-2.11-.57,9.65,9.65,0,0,0-3-.56,4.23,4.23,0,0,0-2.86,1,6.2,6.2,0,0,0-1.72,2.85,20.29,20.29,0,0,0-.84,4.5Q262.17,39.28,262.17,43Z"/><path class="cls-2" d="M251.58,19.74a3.3,3.3,0,0,1-3.38,2,7.55,7.55,0,0,1-4.52-1.63,5.58,5.58,0,0,0-3-1.15,7.68,7.68,0,0,1-4.38-1.79,3.52,3.52,0,0,1-1.42-3,3,3,0,0,1,1.72-2.45,7.58,7.58,0,0,1,1.64-.65,10.83,10.83,0,0,0,3.29-1.44,4.82,4.82,0,0,1,4.78-.35,4.67,4.67,0,0,1,3,3.59,6.18,6.18,0,0,0,1.22,2.78A4.77,4.77,0,0,1,251.72,19,5.08,5.08,0,0,1,251.58,19.74Z"/><path class="cls-2" d="M246.27,4.59a4.12,4.12,0,0,1-1.5,2.18,3.79,3.79,0,0,1-.94.48,2.88,2.88,0,0,1-3.61-1.54,3.38,3.38,0,0,1,.5-3.83A5.82,5.82,0,0,1,244.46,0a3.85,3.85,0,0,1,.83,0,1.53,1.53,0,0,1,1.41,1.14,3.86,3.86,0,0,1,0,2C246.55,3.63,246.4,4.1,246.27,4.59Z"/><path class="cls-2" d="M248.51,3.66a9.16,9.16,0,0,1,1.37-2.26,2.67,2.67,0,0,1,.56-.5,1.59,1.59,0,0,1,2,.14,4.48,4.48,0,0,1,1.17,1.41A5.18,5.18,0,0,1,254.38,6a3.4,3.4,0,0,1-2.27,2.6,2.89,2.89,0,0,1-3.67-1.47,3.56,3.56,0,0,1-.26-2.45C248.27,4.34,248.4,4,248.51,3.66Z"/><path class="cls-2" d="M232.34,5.34a4.46,4.46,0,0,1,1.84-2.23,2.7,2.7,0,0,1,.55-.24,1.55,1.55,0,0,1,1.67.45,3.26,3.26,0,0,1,.54.77,7,7,0,0,1,.76,3.36,2.71,2.71,0,0,1-1,2.07,2.45,2.45,0,0,1-3.22-.16A3.63,3.63,0,0,1,232.18,6,4.23,4.23,0,0,1,232.34,5.34Z"/><path class="cls-2" d="M257.38,13a3.52,3.52,0,0,1-3.14,2.25,2.74,2.74,0,0,1-2.56-1.05,2.32,2.32,0,0,1-.36-1.84,3.17,3.17,0,0,1,1-1.75A7.42,7.42,0,0,1,254.8,9a3.56,3.56,0,0,1,.87-.2,1.57,1.57,0,0,1,1.59.79,3.16,3.16,0,0,1,.42,1.59A4.56,4.56,0,0,1,257.38,13Z"/></g></g></svg>